<svg width="143" height="26" viewBox="0 0 143 26" fill="none" xmlns="http://www.w3.org/2000/svg">
<path fill-rule="evenodd" clip-rule="evenodd" d="M5.57143 9.85714C5.57143 11.4351 4.32422 12.7143 2.78571 12.7143C1.24721 12.7143 0 11.4351 0 9.85714C0 8.27919 1.24721 7 2.78571 7C4.32422 7 5.57143 8.27919 5.57143 9.85714ZM10.5714 20.1429C10.5714 21.7209 9.10036 23.0001 7.28571 23.0001C5.47106 23.0001 4 21.7209 4 20.1429C4 18.565 5.47106 17.2858 7.28571 17.2858C9.10036 17.2858 10.5714 18.565 10.5714 20.1429ZM12.8143 12.7143C14.3528 12.7143 15.6 11.4351 15.6 9.85714C15.6 8.27919 14.3528 7 12.8143 7C11.2758 7 10.0286 8.27919 10.0286 9.85714C10.0286 11.4351 11.2758 12.7143 12.8143 12.7143Z" fill="#FF3706"/>
<path d="M38.1631 9.0083H32.2832V25H28.3281V9.0083H22.5273V5.80469H38.1631V9.0083ZM45.5591 25.2637C43.4673 25.2637 41.7622 24.6221 40.4438 23.3389C39.1343 22.0557 38.4795 20.3462 38.4795 18.2104V17.8413C38.4795 16.4087 38.7563 15.1299 39.3101 14.0049C39.8638 12.8711 40.646 12.001 41.6567 11.3945C42.6763 10.7793 43.8364 10.4717 45.1372 10.4717C47.0884 10.4717 48.6221 11.0869 49.7383 12.3174C50.8633 13.5479 51.4258 15.2925 51.4258 17.5513V19.1069H42.3423C42.4653 20.0386 42.8345 20.7856 43.4497 21.3481C44.0737 21.9106 44.8604 22.1919 45.8096 22.1919C47.2773 22.1919 48.4243 21.6602 49.2505 20.5967L51.1226 22.6929C50.5513 23.5015 49.7778 24.1343 48.8022 24.5913C47.8267 25.0396 46.7456 25.2637 45.5591 25.2637ZM45.124 13.5566C44.3682 13.5566 43.7529 13.8115 43.2783 14.3213C42.8125 14.8311 42.5137 15.5605 42.3818 16.5098H47.6816V16.2065C47.6641 15.3628 47.4355 14.7124 46.9961 14.2554C46.5566 13.7896 45.9326 13.5566 45.124 13.5566ZM59.5337 22.1919C60.2368 22.1919 60.8081 21.9985 61.2476 21.6118C61.687 21.2251 61.9155 20.7109 61.9331 20.0693H65.5059C65.4971 21.0361 65.2334 21.9238 64.7148 22.7324C64.1963 23.5322 63.4844 24.1562 62.5791 24.6045C61.6826 25.0439 60.6895 25.2637 59.5996 25.2637C57.5605 25.2637 55.9521 24.6177 54.7744 23.3257C53.5967 22.0249 53.0078 20.2319 53.0078 17.9468V17.6963C53.0078 15.499 53.5923 13.7456 54.7612 12.436C55.9302 11.1265 57.5342 10.4717 59.5732 10.4717C61.3574 10.4717 62.7856 10.9814 63.8579 12.001C64.939 13.0117 65.4883 14.3608 65.5059 16.0483H61.9331C61.9155 15.3101 61.687 14.7124 61.2476 14.2554C60.8081 13.7896 60.228 13.5566 59.5073 13.5566C58.6196 13.5566 57.9473 13.8818 57.4902 14.5322C57.042 15.1738 56.8179 16.2197 56.8179 17.6699V18.0654C56.8179 19.5332 57.042 20.5879 57.4902 21.2295C57.9385 21.8711 58.6196 22.1919 59.5337 22.1919ZM71.3989 12.291C72.4097 11.0781 73.6797 10.4717 75.209 10.4717C78.3027 10.4717 79.8716 12.269 79.9155 15.8638V25H76.1055V15.9692C76.1055 15.1519 75.9297 14.5498 75.5781 14.1631C75.2266 13.7676 74.6421 13.5698 73.8247 13.5698C72.7085 13.5698 71.8999 14.0005 71.3989 14.8618V25H67.5889V4.75H71.3989V12.291ZM86.8105 25H82.9873V10.7354H86.8105V25ZM82.7632 7.04395C82.7632 6.47266 82.9521 6.00244 83.3301 5.6333C83.7168 5.26416 84.2397 5.07959 84.8989 5.07959C85.5493 5.07959 86.0679 5.26416 86.4546 5.6333C86.8413 6.00244 87.0347 6.47266 87.0347 7.04395C87.0347 7.62402 86.8369 8.09863 86.4414 8.46777C86.0547 8.83691 85.5405 9.02148 84.8989 9.02148C84.2573 9.02148 83.7388 8.83691 83.3433 8.46777C82.9565 8.09863 82.7632 7.62402 82.7632 7.04395ZM102.815 17.9995C102.815 20.2847 102.328 22.0688 101.352 23.3521C100.376 24.6265 99.0142 25.2637 97.2651 25.2637C95.7183 25.2637 94.4834 24.6704 93.5605 23.4839L93.3892 25H89.9614V4.75H93.7715V12.0142C94.6504 10.9858 95.8062 10.4717 97.2388 10.4717C98.979 10.4717 100.341 11.1133 101.326 12.3965C102.319 13.6709 102.815 15.4683 102.815 17.7886V17.9995ZM99.0054 17.7227C99.0054 16.2812 98.7769 15.231 98.3198 14.5718C97.8628 13.9038 97.1816 13.5698 96.2764 13.5698C95.0635 13.5698 94.2285 14.0664 93.7715 15.0596V20.689C94.2373 21.6909 95.0811 22.1919 96.3027 22.1919C97.5332 22.1919 98.3418 21.5854 98.7285 20.3726C98.9131 19.7925 99.0054 18.9092 99.0054 17.7227ZM111.741 25.2637C109.649 25.2637 107.944 24.6221 106.625 23.3389C105.316 22.0557 104.661 20.3462 104.661 18.2104V17.8413C104.661 16.4087 104.938 15.1299 105.492 14.0049C106.045 12.8711 106.828 12.001 107.838 11.3945C108.858 10.7793 110.018 10.4717 111.319 10.4717C113.27 10.4717 114.804 11.0869 115.92 12.3174C117.045 13.5479 117.607 15.2925 117.607 17.5513V19.1069H108.524C108.647 20.0386 109.016 20.7856 109.631 21.3481C110.255 21.9106 111.042 22.1919 111.991 22.1919C113.459 22.1919 114.606 21.6602 115.432 20.5967L117.304 22.6929C116.733 23.5015 115.959 24.1343 114.984 24.5913C114.008 25.0396 112.927 25.2637 111.741 25.2637ZM111.306 13.5566C110.55 13.5566 109.935 13.8115 109.46 14.3213C108.994 14.8311 108.695 15.5605 108.563 16.5098H113.863V16.2065C113.846 15.3628 113.617 14.7124 113.178 14.2554C112.738 13.7896 112.114 13.5566 111.306 13.5566ZM128.049 25C127.873 24.6572 127.746 24.231 127.667 23.7212C126.744 24.7495 125.544 25.2637 124.067 25.2637C122.67 25.2637 121.51 24.8594 120.587 24.0508C119.673 23.2422 119.216 22.2227 119.216 20.9922C119.216 19.4805 119.774 18.3203 120.89 17.5117C122.015 16.7031 123.637 16.2944 125.755 16.2856H127.508V15.4683C127.508 14.8091 127.337 14.2817 126.994 13.8862C126.66 13.4907 126.128 13.293 125.399 13.293C124.757 13.293 124.252 13.4468 123.883 13.7544C123.522 14.062 123.342 14.4839 123.342 15.02H119.532C119.532 14.1938 119.787 13.4292 120.297 12.7261C120.807 12.0229 121.527 11.4736 122.459 11.0781C123.391 10.6738 124.437 10.4717 125.597 10.4717C127.354 10.4717 128.748 10.9155 129.776 11.8032C130.813 12.6821 131.332 13.9214 131.332 15.521V21.7041C131.34 23.0576 131.529 24.0815 131.898 24.7759V25H128.049ZM124.898 22.3501C125.46 22.3501 125.979 22.2271 126.454 21.981C126.928 21.7261 127.28 21.3877 127.508 20.9658V18.5137H126.084C124.177 18.5137 123.162 19.1729 123.039 20.4912L123.026 20.7153C123.026 21.1899 123.193 21.5811 123.527 21.8887C123.861 22.1963 124.318 22.3501 124.898 22.3501ZM138.82 7.22852V10.7354H141.259V13.5303H138.82V20.6494C138.82 21.1768 138.921 21.5547 139.123 21.7832C139.325 22.0117 139.712 22.126 140.283 22.126C140.705 22.126 141.079 22.0952 141.404 22.0337V24.9209C140.657 25.1494 139.888 25.2637 139.097 25.2637C136.425 25.2637 135.062 23.9146 135.01 21.2163V13.5303H132.927V10.7354H135.01V7.22852H138.82Z" fill="white"/>
</svg>
